<?xml version="1.0" encoding="UTF-8"?><svg xmlns="http://www.w3.org/2000/svg" xmlns:xlink="http://www.w3.org/1999/xlink" width="300" zoomAndPan="magnify" viewBox="0 0 300 299.999988" height="299.999988" preserveAspectRatio="xMidYMid meet" version="1.0"><defs><clipPath id="clip-0"><path d="M 72.414062 81.914062 L 227.664062 81.914062 L 227.664062 206 L 72.414062 206 Z M 72.414062 81.914062 " clip-rule="nonzero"/></clipPath><clipPath id="clip-1"><path d="M 136 265 L 164 265 L 164 270.164062 L 136 270.164062 Z M 136 265 " clip-rule="nonzero"/></clipPath></defs><path fill="rgb(100%, 100%, 100%)" d="M 108.472656 128.402344 C 110.371094 103.617188 131.039062 84.078125 156.304688 84.078125 C 182.691406 84.078125 204.09375 105.378906 204.304688 131.730469 C 216.597656 137.515625 225.132812 149.980469 225.132812 164.472656 L 225.132812 167.347656 C 225.132812 187.339844 208.929688 203.550781 188.945312 203.550781 L 111.136719 203.550781 C 91.148438 203.550781 74.949219 187.339844 74.949219 167.347656 L 74.949219 164.472656 C 74.949219 145.375 89.734375 129.777344 108.472656 128.402344 Z M 108.472656 128.402344 " fill-opacity="1" fill-rule="nonzero"/><path fill="rgb(85.099792%, 89.408875%, 92.939758%)" d="M 156.300781 99.765625 C 182.691406 99.765625 204.089844 121.066406 204.304688 147.414062 C 214.761719 152.339844 222.441406 162.117188 224.515625 173.835938 C 221.453125 190.726562 206.710938 203.550781 188.941406 203.550781 L 111.136719 203.550781 C 93.332031 203.550781 78.5625 190.664062 75.546875 173.71875 C 78.429688 157.664062 91.898438 145.308594 108.472656 144.089844 C 110.371094 119.304688 131.039062 99.765625 156.300781 99.765625 Z M 156.300781 99.765625 " fill-opacity="1" fill-rule="nonzero"/><g clip-path="url(#clip-0)"><path stroke-linecap="round" transform="matrix(1.489987, 0, 0, 1.490499, 49.464904, 75.354596)" fill="none" stroke-linejoin="round" d="M 39.602864 35.590604 C 40.876994 18.961836 54.748235 5.852759 71.705179 5.852759 C 89.414541 5.852759 103.778655 20.143802 103.920225 37.823498 C 112.170612 41.704854 117.898955 50.067723 117.898955 59.790769 L 117.898955 61.719654 C 117.898955 75.132741 107.024279 86.008925 93.61183 86.008925 L 41.390841 86.008925 C 27.97577 86.008925 17.103716 75.132741 17.103716 61.719654 L 17.103716 59.790769 C 17.103716 46.977838 27.026726 36.513115 39.602864 35.590604 Z M 39.602864 35.590604 " stroke="rgb(19.999695%, 21.179199%, 22.749329%)" stroke-width="3" stroke-opacity="1" stroke-miterlimit="10"/></g><path fill="rgb(12.548828%, 82.749939%, 59.21936%)" d="M 161.398438 230.113281 L 161.398438 164.722656 L 166.613281 169.949219 C 168.835938 172.167969 171.746094 173.273438 174.652344 173.273438 C 177.558594 173.273438 180.464844 172.167969 182.683594 169.941406 C 187.117188 165.511719 187.117188 158.316406 182.683594 153.878906 L 158.070312 129.261719 C 158.0625 129.25 158.046875 129.25 158.039062 129.234375 C 157.519531 128.71875 156.949219 128.253906 156.335938 127.84375 C 156.0625 127.667969 155.769531 127.542969 155.480469 127.378906 C 155.117188 127.179688 154.769531 126.964844 154.386719 126.792969 C 154.023438 126.648438 153.640625 126.566406 153.277344 126.457031 C 152.9375 126.351562 152.609375 126.226562 152.257812 126.15625 C 151.578125 126.015625 150.894531 125.953125 150.195312 125.945312 C 150.140625 125.945312 150.09375 125.933594 150.039062 125.933594 C 149.988281 125.933594 149.9375 125.945312 149.882812 125.945312 C 149.1875 125.953125 148.5 126.015625 147.820312 126.15625 C 147.472656 126.226562 147.140625 126.351562 146.808594 126.457031 C 146.4375 126.566406 146.066406 126.648438 145.699219 126.792969 C 145.3125 126.964844 144.957031 127.179688 144.601562 127.378906 C 144.316406 127.539062 144.015625 127.664062 143.742188 127.84375 C 143.132812 128.253906 142.5625 128.71875 142.039062 129.234375 C 142.035156 129.25 142.015625 129.25 142.011719 129.261719 L 117.394531 153.878906 C 112.960938 158.316406 112.960938 165.511719 117.394531 169.941406 C 121.828125 174.378906 129.023438 174.378906 133.464844 169.949219 L 138.683594 164.722656 L 138.683594 230.113281 " fill-opacity="1" fill-rule="nonzero"/><path fill="rgb(6.669617%, 66.668701%, 65.098572%)" d="M 161.398438 230.113281 L 161.398438 164.722656 L 166.613281 169.949219 C 168.835938 172.167969 171.746094 173.273438 174.652344 173.273438 C 177.027344 173.273438 179.375 172.492188 181.375 171.015625 L 158.070312 147.710938 C 158.0625 147.703125 158.046875 147.695312 158.039062 147.683594 C 157.519531 147.171875 156.949219 146.703125 156.335938 146.300781 C 156.0625 146.113281 155.769531 145.984375 155.480469 145.832031 C 155.117188 145.628906 154.769531 145.417969 154.386719 145.25 C 154.023438 145.105469 153.640625 145.023438 153.277344 144.90625 C 152.9375 144.804688 152.609375 144.683594 152.257812 144.609375 C 151.578125 144.476562 150.894531 144.40625 150.195312 144.394531 C 150.140625 144.394531 150.09375 144.382812 150.039062 144.382812 C 149.988281 144.382812 149.9375 144.394531 149.882812 144.394531 C 149.1875 144.40625 148.5 144.476562 147.820312 144.609375 C 147.472656 144.683594 147.140625 144.804688 146.808594 144.90625 C 146.4375 145.023438 146.066406 145.105469 145.699219 145.25 C 145.3125 145.417969 144.957031 145.628906 144.601562 145.832031 C 144.316406 145.984375 144.015625 146.113281 143.742188 146.300781 C 143.132812 146.703125 142.5625 147.171875 142.039062 147.683594 C 142.035156 147.695312 142.015625 147.703125 142.011719 147.710938 L 118.710938 171.015625 C 123.152344 174.308594 129.429688 173.972656 133.464844 169.949219 L 138.683594 164.722656 L 138.683594 230.113281 " fill-opacity="1" fill-rule="nonzero"/><path stroke-linecap="round" transform="matrix(1.489987, 0, 0, 1.490499, 49.464904, 75.354596)" fill="none" stroke-linejoin="round" d="M 75.123833 103.830142 L 75.123833 59.958498 L 78.623759 63.465085 C 80.115487 64.953681 82.068629 65.695358 84.01915 65.695358 C 85.96967 65.695358 87.920191 64.953681 89.409298 63.459843 C 92.38489 60.487893 92.38489 55.66044 89.409298 52.683248 L 72.890172 36.167173 C 72.884929 36.159311 72.874442 36.159311 72.869199 36.148828 C 72.520517 35.802887 72.137754 35.491015 71.726152 35.215835 C 71.542636 35.0979 71.346011 35.014036 71.152007 34.903963 C 70.908192 34.770304 70.674864 34.626162 70.41794 34.510848 C 70.174125 34.41388 69.917202 34.358844 69.673387 34.285462 C 69.445302 34.214702 69.225082 34.130837 68.989132 34.083663 C 68.532962 33.989316 68.07417 33.947383 67.604891 33.942142 C 67.568188 33.942142 67.536728 33.93428 67.500025 33.93428 C 67.465943 33.93428 67.431861 33.942142 67.395158 33.942142 C 66.928501 33.947383 66.467088 33.989316 66.010918 34.083663 C 65.777589 34.130837 65.554748 34.214702 65.331906 34.285462 C 65.082848 34.358844 64.833789 34.41388 64.587352 34.510848 C 64.327807 34.626162 64.089236 34.770304 63.850664 34.903963 C 63.659282 35.011415 63.457414 35.095279 63.273897 35.215835 C 62.864917 35.491015 62.482154 35.802887 62.13085 36.148828 C 62.128229 36.159311 62.11512 36.159311 62.112499 36.167173 L 45.590752 52.683248 C 42.61516 55.66044 42.61516 60.487893 45.590752 63.459843 C 48.566344 66.437035 53.395455 66.437035 56.376291 63.465085 L 59.878838 59.958498 L 59.878838 103.830142 " stroke="rgb(19.999695%, 21.179199%, 22.749329%)" stroke-width="3" stroke-opacity="1" stroke-miterlimit="10"/><path stroke-linecap="round" transform="matrix(1.489987, 0, 0, 1.490499, 49.464904, 75.354596)" fill="none" stroke-linejoin="round" d="M 59.784458 111.309812 L 75.21297 111.309812 " stroke="rgb(19.999695%, 21.179199%, 22.749329%)" stroke-width="3" stroke-opacity="1" stroke-miterlimit="10"/><path stroke-linecap="round" transform="matrix(1.489987, 0, 0, 1.490499, 49.464904, 75.354596)" fill="none" stroke-linejoin="round" d="M 59.784458 120.22042 L 75.21297 120.22042 " stroke="rgb(19.999695%, 21.179199%, 22.749329%)" stroke-width="3" stroke-opacity="1" stroke-miterlimit="10"/><g clip-path="url(#clip-1)"><path stroke-linecap="round" transform="matrix(1.489987, 0, 0, 1.490499, 49.464904, 75.354596)" fill="none" stroke-linejoin="round" d="M 59.784458 129.149374 L 75.21297 129.149374 " stroke="rgb(19.999695%, 21.179199%, 22.749329%)" stroke-width="3" stroke-opacity="1" stroke-miterlimit="10"/></g></svg>