<svg
    className="svgCompo"
      xmlns="http://www.w3.org/2000/svg"
      x="0"
      y="0"
      enableBackground="new 0 0 512 512"
      version="1.1"
      viewBox="0 0 512 512"
      xmlSpace="preserve"
    >
      <path
        fill="#7F8499"
        d="M494.345 61.793H17.655C7.905 61.793 0 69.697 0 79.448v70.621c0 9.75 7.905 17.655 17.655 17.655H494.345c9.75 0 17.655-7.905 17.655-17.655V79.448c0-9.751-7.905-17.655-17.655-17.655z"
      ></path>
      <path
        fill="#464655"
        d="M459.034 123.586H52.966a8.829 8.829 0 010-17.656h406.069a8.829 8.829 0 01-.001 17.656z"
      ></path>
      <path
        fill="#00C3FF"
        d="M79.448 105.931v317.793c0 14.626 11.857 26.483 26.483 26.483h300.138c14.626 0 26.483-11.857 26.483-26.483V105.931H79.448z"
      ></path>
      <g fill="#AFB9D2">
        <path d="M189.793 216.276a8.826 8.826 0 01-8.828-8.828v-22.069a8.826 8.826 0 018.828-8.828 8.826 8.826 0 018.828 8.828v22.069a8.826 8.826 0 01-8.828 8.828zM189.793 282.483a8.826 8.826 0 01-8.828-8.828v-22.069a8.826 8.826 0 018.828-8.828 8.826 8.826 0 018.828 8.828v22.069a8.826 8.826 0 01-8.828 8.828z"></path>
      </g>
      <g fill="#C7CFE2">
        <path d="M229.517 291.31a8.826 8.826 0 01-8.828-8.828v-79.448c0-4.875 3.948-8.828 8.828-8.828s8.828 3.953 8.828 8.828v79.448a8.825 8.825 0 01-8.828 8.828zM229.517 406.069a8.826 8.826 0 01-8.828-8.828v-79.448c0-4.875 3.948-8.828 8.828-8.828s8.828 3.953 8.828 8.828v79.448a8.826 8.826 0 01-8.828 8.828z"></path>
      </g>
      <circle cx="335.448" cy="353.103" r="44.138" fill="#FFDC64"></circle>
      <circle cx="335.448" cy="291.31" r="44.138" fill="#FF5050"></circle>
      <path fill="#00AAF0" d="M79.448 105.931H432.551V123.586H79.448z"></path>
      <path
        fill="#FF8C5A"
        d="M335.448 308.966c-12.334 0-23.459 5.084-31.469 13.241 8.009 8.158 19.134 13.241 31.469 13.241s23.459-5.084 31.469-13.241c-8.009-8.158-19.134-13.241-31.469-13.241z"
      ></path>
      <g fill="#C7CFE2">
        <path d="M220.69 105.931v61.793c0 4.875 3.948 8.828 8.828 8.828s8.828-3.953 8.828-8.828v-61.793H220.69zM141.241 105.931v61.793a8.826 8.826 0 008.828 8.828 8.826 8.826 0 008.828-8.828v-61.793h-17.656z"></path>
      </g>
      <g fill="#AFB9D2">
        <path d="M141.241 105.931H158.89600000000002V123.586H141.241z"></path>
        <path d="M220.69 105.931H238.345V123.586H220.69z"></path>
      </g>
    </svg>