<svg xmlns="http://www.w3.org/2000/svg" x="0" y="0" class="svgCompo" enableBackground="new 0 0 392.663 392.663" version="1.1" viewBox="0 0 392.663 392.663" xmlSpace="preserve"><path fill="#FFF" d="M370.844 370.812H54.659V55.402c0-6.012-4.848-10.925-10.925-10.925H21.883V21.851h85.721v67.814c0 6.012 4.848 10.925 10.925 10.925 113.455.259 205.77 92.638 205.77 206.158 0 6.012 4.848 10.925 10.925 10.925l35.685.065-.065 53.074z"/><path fill="#FFC10D" d="M324.299 306.747c0-113.455-92.315-205.964-205.77-206.158-6.012 0-10.925-4.848-10.925-10.925V21.851H21.883v22.562h21.786c6.012 0 10.925 4.848 10.925 10.925v220.768h27.798c6.012 0 10.925 4.848 10.925 10.925 0 6.012-4.848 10.925-10.925 10.925H54.594v25.212h15.709c6.012 0 10.925 4.848 10.925 10.925 0 6.012-4.848 10.925-10.925 10.925H54.659v25.859h316.186v-53.075l-35.685-.065c-6.013-.064-10.861-4.977-10.861-10.99z"/><circle cx="188.606" cy="242.23" r="86.109" fill="#FFF"/><g fill="#194F82"><path d="M181.366 208.291h36.913c6.012 0 10.925-4.848 10.925-10.925s-4.848-10.925-10.925-10.925h-13.123v-6.077c0-6.012-4.848-10.925-10.925-10.925s-10.925 4.848-10.925 10.925v6.077h-2.004c-18.36 0-33.293 14.933-33.293 33.293s14.933 33.293 33.293 33.293h14.545c6.335 0 11.507 5.172 11.507 11.507s-5.172 11.507-11.507 11.507h-36.913c-6.012 0-10.925 4.848-10.925 10.925s4.848 10.925 10.925 10.925h24.372v6.077c0 6.012 4.848 10.925 10.925 10.925 6.012 0 10.925-4.848 10.925-10.925v-7.434c13.899-4.008 24.113-16.873 24.113-32 0-18.36-14.933-33.293-33.293-33.293H181.43c-6.335 0-11.507-5.172-11.507-11.507a11.422 11.422 0 0111.443-11.443z"/><path d="M381.77 295.952l-35.943-.065c-3.685-79.192-48.162-147.911-112.743-185.859l16.614-35.685 15.968 7.434c5.883 2.651 11.96-.259 14.481-5.301 2.521-5.495.129-11.96-5.301-14.481L223 38.011c-5.495-2.521-11.96-.129-14.481 5.301-2.521 5.495-.129 11.96 5.301 14.481l16.097 7.434-16.097 34.715c-25.859-12.024-54.303-19.394-84.364-20.881V10.925C129.455 4.913 124.606 0 118.529 0H10.958C4.945 0 .032 4.848.032 10.925v44.477c0 6.012 4.848 10.925 10.925 10.925h21.851v315.41c0 6.012 4.848 10.925 10.925 10.925h337.972c6.012 0 10.925-4.848 10.925-10.925v-74.861c0-6.011-4.848-10.86-10.86-10.924zm-10.926 74.86H54.659V55.402c0-6.012-4.848-10.925-10.925-10.925H21.883V21.851h85.721v67.814c0 6.012 4.848 10.925 10.925 10.925 113.455.259 205.77 92.638 205.77 206.158 0 6.012 4.848 10.925 10.925 10.925l35.685.065-.065 53.074z"/></g></svg>