<svg
      xmlns="http://www.w3.org/2000/svg"
      x="0"
      y="0"
      enableBackground="new 0 0 406.193 406.193"
      version="1.1"
      viewBox="0 0 406.193 406.193"
      xmlSpace="preserve"
    >
      <path
        fill="#2DC9AF"
        d="M247.101 383.314L159.101 383.314 159.101 342.365 247.101 342.365 247.101 383.314"
      ></path>
      <path
        fill="#2BE0C6"
        d="M386.837 80.596v250.49c0 9.94-8.05 18-17.99 18H37.357c-9.94 0-18-8.06-18-18V80.596h367.48"
      ></path>
      <path
        fill="#FFF"
        d="M44.36 324.083L44.36 105.597 361.842 105.597 361.842 324.083 44.36 324.083"
      ></path>
      <path
        fill="#2BE0C6"
        d="M313.257 394.597H92.947c0-4.97 2.02-9.47 5.27-12.73 3.26-3.25 7.76-5.27 12.73-5.27h184.31c9.94 0 18 8.059 18 18"
      ></path>
      <path
        fill="#999"
        d="M214.469 224.642c-8.23-16.709-24.915-27.09-43.542-27.09h-27.163c-1.6-6.441-5.362-12.231-10.729-16.226a7.723 7.723 0 01-3.1-6.697c.236-3.795 3.394-6.953 7.188-7.188a7.656 7.656 0 015.782 2.074 7.638 7.638 0 012.432 5.619h14a21.794 21.794 0 00-6.843-15.821c-4.411-4.145-10.176-6.223-16.238-5.846-10.894.677-19.618 9.401-20.294 20.294a21.678 21.678 0 008.713 18.795c1.781 1.325 3.206 3.048 4.222 4.995h-24.568c-18.626 0-35.311 10.38-43.542 27.09-3.015 6.121-2.663 13.234.941 19.027 3.605 5.793 9.83 9.252 16.653 9.252h118.495c6.823 0 13.048-3.459 16.653-9.252 3.603-5.793 3.955-12.906.94-19.026m-12.828 11.631c-.496.796-1.951 2.648-4.766 2.648H78.38c-2.814 0-4.27-1.852-4.766-2.648-.495-.796-1.513-2.92-.27-5.445 5.857-11.89 17.73-19.276 30.984-19.276h66.598c13.254 0 25.127 7.386 30.983 19.277 1.245 2.524.227 4.648-.268 5.444"
      ></path>
      <path
        fill="#F9DE58"
        d="M186.375 308.435L88.88 308.435 88.88 231.939 186.375 231.939 186.375 308.435"
      ></path>
      <path
        fill="#E6E6E6"
        d="M341.207 258.596L240.207 258.596 240.207 285.596 341.207 285.596 341.207 258.596"
      ></path>
      <path
        fill="#E6E6E6"
        d="M341.207 220.784L240.207 220.784 240.207 247.784 341.207 247.784 341.207 220.784"
      ></path>
      <path
        fill="#E6E6E6"
        d="M341.207 183.041L240.207 183.041 240.207 210.041 341.207 210.041 341.207 183.041"
      ></path>
      <path
        fill="#6FEAD8"
        d="M361.842 173.966v150.117H211.457l7.621 25.003h149.77c9.94 0 17.99-8.06 17.99-18v-157.12a52.143 52.143 0 01-24.996 0"
      ></path>
      <path
        fill="#FFF"
        d="M177.339 212.139l6.034 19.8h3.002v6.982h10.5c2.814 0 4.27-1.852 4.766-2.648.495-.796 1.513-2.92.269-5.445-4.893-9.933-13.984-16.722-24.571-18.689m62.868 73.457v-27h101v27h-101m0-37.812v-27h101v27h-101m0-37.743v-27h101v27h-101m99.88-47.445l-.01.01c-9.8 8.585-22.023 12.877-34.244 12.877s-24.441-4.292-34.236-12.877l-.01-.01-.01.01c-9.8 8.58-22.02 12.87-34.24 12.87s-24.44-4.29-34.24-12.87l-.01-.01c-9.8 8.585-22.023 12.877-34.245 12.877-.9 0-1.801-.023-2.7-.07l6.762 22.187c17.824.706 33.626 10.935 41.564 27.051 3.015 6.121 2.664 13.233-.94 19.027-3.605 5.793-9.83 9.252-16.653 9.252h-7.107l21.689 71.162h150.385V173.966a51.79 51.79 0 01-21.744-11.359l-.011-.011"
      ></path>
      <path
        fill="#BABABA"
        d="M172.905 197.591l4.434 14.548c10.588 1.966 19.678 8.756 24.571 18.689 1.244 2.525.226 4.649-.269 5.445-.496.796-1.951 2.648-4.766 2.648h-10.5v2.868l3.393 11.132h7.107c6.823 0 13.048-3.459 16.653-9.252 3.604-5.793 3.956-12.906.94-19.027-7.937-16.116-23.739-26.345-41.563-27.051"
      ></path>
      <path
        fill="#FBE98E"
        d="M186.375 231.939L183.373 231.939 186.375 241.789 186.375 238.921 186.375 231.939"
      ></path>
      <path
        fill="#EEE"
        d="M341.207 258.596L240.207 258.596 240.207 285.596 341.207 285.596 341.207 258.596"
      ></path>
      <path
        fill="#EEE"
        d="M341.207 220.784L240.207 220.784 240.207 247.784 341.207 247.784 341.207 220.784"
      ></path>
      <path
        fill="#EEE"
        d="M341.207 183.041L240.207 183.041 240.207 210.041 341.207 210.041 341.207 183.041"
      ></path>
      <path
        fill="#6FEAD8"
        d="M295.257 376.597h-93.4l5.49 18h105.91c0-9.941-8.06-18-18-18"
      ></path>
      <path
        fill="#2EA897"
        d="M137.247 80.596H19.357v93.36a52.063 52.063 0 0025.002-.008v-68.352h100.507l-7.619-25"
      ></path>
      <path
        fill="#BDBDBD"
        d="M144.867 105.597H44.36v68.352a51.855 51.855 0 0021.728-11.352h.01l.01.01c9.8 8.58 22.02 12.87 34.24 12.87 5.288 0 10.577-.804 15.669-2.41.995-10.567 9.579-18.937 20.24-19.599.468-.029.935-.044 1.399-.044 5.545 0 10.769 2.064 14.839 5.889a21.803 21.803 0 016.837 15.286c2.255.418 4.529.686 6.813.805l-21.278-69.807"
      ></path>
      <path
        fill="#787878"
        d="M137.655 153.424c-.464 0-.931.014-1.399.044-10.661.662-19.244 9.031-20.24 19.599a51.82 51.82 0 0018.571-10.46l.01-.01A51.791 51.791 0 00159.33 174.6a21.794 21.794 0 00-6.837-15.286c-4.069-3.826-9.293-5.89-14.838-5.89"
      ></path>
      <path
        fill="#5CAFA3"
        d="M386.837 80.596h-249.59l7.619 25h216.975v68.369a52.15 52.15 0 0024.996.001v-93.37"
      ></path>
      <path
        fill="#BDBDBD"
        d="M361.842 105.597H144.867l21.276 69.808c.899.047 1.8.07 2.7.07 12.222 0 24.445-4.292 34.245-12.877l.01.01c9.8 8.58 22.02 12.87 34.24 12.87s24.44-4.29 34.24-12.87l.01-.01.01.01c9.795 8.585 22.015 12.877 34.236 12.877s24.444-4.292 34.244-12.877l.01-.01.01.01a51.779 51.779 0 0021.744 11.359v-68.37"
      ></path>
      <path
        fill="#E6E6E6"
        d="M405.825 121.574l-9.517-51.977-6.85-37.39c-2.18-11.94-12.59-20.61-24.73-20.61H41.458c-12.13 0-22.54 8.67-24.73 20.61l-6.85 37.39-9.51 51.97c-1.979 10.813 4.192 21.519 14.588 25.09 17.156 5.894 36.748 2.54 51.131-10.06h.01l.01.01c19.6 17.16 48.88 17.16 68.48 0l.01-.01c19.6 17.17 48.89 17.17 68.49 0l.01.01c19.6 17.16 48.88 17.16 68.48 0l.01-.01.01.01c19.59 17.17 48.88 17.17 68.48 0l.01-.01.01.01c14.384 12.6 33.98 15.954 51.138 10.061 10.399-3.572 16.57-14.28 14.59-25.094z"
      ></path>
      <path
        fill="#FC7A51"
        d="M340.097 136.606l-.01-.01-.01.01c-19.6 17.17-48.89 17.17-68.48 0l-4.09-67.01-3.54-58h60.87l7.08 58 8.18 67.01zM203.097 11.596v125.01l-.01-.01c-19.6 17.17-48.89 17.17-68.49 0h-.01l4.1-67 3.54-58h60.87zM81.357 11.596l-7.09 58-8.18 67c-14.384 12.601-33.976 15.954-51.131 10.06-10.397-3.572-16.567-14.277-14.588-25.09l9.51-51.97 6.85-37.39c2.19-11.94 12.6-20.61 24.73-20.61h39.899z"
      ></path>
      <path fill="#E0BF20" d="M88.88 231.939H186.375V245.921H88.88z"></path>
    </svg>