<svg
      xmlns="http://www.w3.org/2000/svg"
      x="0"
      y="0"
      enableBackground="new 0 0 512.001 512.001"
      version="1.1"
      viewBox="0 0 512.001 512.001"
      xmlSpace="preserve"
    >
      <path
        fill="#515262"
        d="M151.428 29.77C84.304 29.77 29.89 84.184 29.89 151.308v55.301h243.075v-55.301c0-67.124-54.414-121.538-121.537-121.538z"
      ></path>
      <path
        d="M151.312 29.079h.058c-8.976 0-17.809 1.327-26.23 3.174 54.556 11.961 95.306 60.908 95.306 119.055v54.501h52.287v-54.501c0-67.124-54.298-122.229-121.421-122.229z"
        enableBackground="new"
        opacity="0.1"
      ></path>
      <path
        fill="#E6B696"
        d="M47.594 174.691c-16.485 0-29.848 13.364-29.848 29.848 0 16.485 13.363 29.848 29.848 29.848h14.515V174.69H47.594z"
      ></path>
      <path
        fill="#FF6465"
        d="M295.012 450.865c-15.956-39.37-47.633-70.687-87.247-86.164l-.626-.237H95.715c-39.903 15.391-71.832 46.827-87.871 86.402h287.168z"
      ></path>
      <path
        fill="#E6B696"
        d="M183.017 357.364v-56.08h-63.18v56.08a153.98 153.98 0 00-24.122 7.098c6.736 24.452 29.118 42.418 55.712 42.418s48.976-17.966 55.712-42.418a154.087 154.087 0 00-24.122-7.098z"
      ></path>
      <path
        fill="#A5EB78"
        d="M216.99 450.865c15.956-39.37 47.633-70.687 87.247-86.164l.626-.237h111.423c39.903 15.391 71.831 46.827 87.872 86.402H216.99z"
      ></path>
      <path
        fill="#E6B696"
        d="M328.984 357.364v-56.08h63.18v56.08a153.98 153.98 0 0124.122 7.098c-6.736 24.452-29.118 42.418-55.712 42.418s-48.976-17.966-55.711-42.418a154.075 154.075 0 0124.121-7.098z"
      ></path>
      <path
        d="M120.056 299.924v53.068c9.412 2.438 20.488 3.737 31.372 3.737s21.96-1.3 31.372-3.738v-53.068h-62.744v.001zM329.203 299.924v53.068c9.412 2.438 20.488 3.739 31.372 3.739s21.96-1.3 31.372-3.737v-53.068h-62.744v-.002z"
        enableBackground="new"
        opacity="0.1"
      ></path>
      <path
        fill="#F0C5A6"
        d="M226.273 125.924c-10.334 0-18.711-8.377-18.711-18.711 0 10.334-8.377 18.711-18.711 18.711-10.334 0-18.711-8.377-18.711-18.711 0 10.334-8.377 18.711-18.711 18.711s-18.711-8.377-18.711-18.711c0 10.334-8.377 18.711-18.711 18.711-10.334 0-18.711-8.377-18.711-18.711 0 10.334-8.377 18.711-18.711 18.711-6.034 0-11.386-2.868-14.808-7.302-9.065 14.642-14.303 31.903-14.303 50.39v52.392c0 57.412 46.543 103.954 103.955 103.954s103.955-46.543 103.955-103.954v-52.392c0-18.486-5.238-35.747-14.303-50.39-3.422 4.433-8.774 7.302-14.808 7.302z"
      ></path>
      <path
        fill="#FFD782"
        d="M360.575 29.77c-67.124 0-121.537 54.414-121.537 121.537v55.301h243.075v-55.301C482.112 84.184 427.697 29.77 360.575 29.77z"
      ></path>
      <path
        d="M360.459 29.079h.057c-8.976 0-17.809 1.327-26.23 3.174 54.556 11.961 95.307 60.908 95.307 119.055v54.501h52.287v-54.501c0-67.124-54.299-122.229-121.421-122.229z"
        enableBackground="new"
        opacity="0.1"
      ></path>
      <path
        fill="#E6B696"
        d="M464.409 174.691c16.485 0 29.848 13.364 29.848 29.848 0 16.485-13.363 29.848-29.848 29.848h-14.515V174.69h14.515z"
      ></path>
      <path
        fill="#F0C5A6"
        d="M285.729 125.924c10.334 0 18.711-8.377 18.711-18.711 0 10.334 8.377 18.711 18.711 18.711s18.711-8.377 18.711-18.711c0 10.334 8.377 18.711 18.711 18.711s18.711-8.377 18.711-18.711c0 10.334 8.377 18.711 18.711 18.711s18.711-8.377 18.711-18.711c0 10.334 8.377 18.711 18.711 18.711 6.034 0 11.386-2.868 14.808-7.302 9.064 14.642 14.302 31.903 14.302 50.39v52.392c0 57.412-46.542 103.954-103.955 103.954s-103.955-46.543-103.955-103.954v-52.392c0-18.486 5.238-35.747 14.303-50.39 3.423 4.433 8.775 7.302 14.809 7.302z"
      ></path>
      <path
        fill="#5A4146"
        d="M256.001 61.142c-67.124 0-121.537 54.414-121.537 121.537v55.301h243.075v-55.3c0-67.124-54.414-121.538-121.538-121.538z"
      ></path>
      <path
        d="M255.885 60.451h.058c-8.976 0-17.809 1.327-26.23 3.174 54.556 11.961 95.306 60.908 95.306 119.055v54.501h52.287V182.68c0-67.124-54.297-122.229-121.421-122.229z"
        enableBackground="new"
        opacity="0.1"
      ></path>
      <g fill="#E6B273">
        <path d="M152.167 206.063c-16.485 0-29.848 13.364-29.848 29.848 0 16.485 13.363 29.848 29.848 29.848h14.515v-59.697h-14.515zM359.835 206.063c16.485 0 29.848 13.364 29.848 29.848 0 16.485-13.363 29.848-29.848 29.848H345.32v-59.697h14.515z"></path>
      </g>
      <path
        fill="#6AB2CC"
        d="M399.586 482.237c-15.956-39.37-47.633-70.687-87.247-86.164l-.626-.237H200.29c-39.903 15.391-71.832 46.827-87.872 86.402h287.168z"
      ></path>
      <path
        fill="#F0C087"
        d="M287.591 388.737v-56.08h-63.18v56.08a153.98 153.98 0 00-24.122 7.098c6.736 24.452 29.118 42.418 55.712 42.418 26.593 0 48.976-17.966 55.711-42.418a153.86 153.86 0 00-24.121-7.098z"
      ></path>
      <path
        d="M224.629 331.296v53.068c9.412 2.438 20.488 3.737 31.372 3.737s21.96-1.3 31.372-3.738v-53.068h-62.744v.001z"
        enableBackground="new"
        opacity="0.1"
      ></path>
      <path
        fill="#F0C087"
        d="M330.846 157.296c-10.334 0-18.711-8.377-18.711-18.711 0 10.334-8.377 18.711-18.711 18.711-10.334 0-18.711-8.377-18.711-18.711 0 10.334-8.377 18.711-18.711 18.711-10.334 0-18.711-8.377-18.711-18.711 0 10.334-8.377 18.711-18.711 18.711-10.334 0-18.711-8.377-18.711-18.711 0 10.334-8.377 18.711-18.711 18.711-6.034 0-11.386-2.868-14.808-7.302-9.065 14.642-14.303 31.903-14.303 50.39v52.392c0 57.412 46.543 103.954 103.955 103.954s103.955-46.542 103.955-103.954v-52.392c0-18.486-5.238-35.747-14.302-50.39-3.423 4.433-8.775 7.302-14.809 7.302z"
      ></path>
      <path d="M224.194 286.21a7.844 7.844 0 002.191 10.874c6.214 4.13 17.286 6.595 29.616 6.595s23.401-2.465 29.615-6.594a7.844 7.844 0 00-8.681-13.065c-2.879 1.914-10.657 3.973-20.934 3.973-10.276 0-18.055-2.06-20.935-3.974a7.843 7.843 0 00-10.872 2.191zM194.011 220.498c1.727-1.412 7.3-3.512 15.578-3.512 8.279 0 13.853 2.101 15.578 3.513 3.311 2.706 8.332 2.2 11.037-1.107a7.845 7.845 0 00-1.106-11.037c-5.403-4.418-14.938-7.056-25.51-7.056-10.568 0-20.105 2.637-25.508 7.055a7.843 7.843 0 00-1.108 11.036c2.745 3.354 7.686 3.852 11.039 1.108z"></path>
      <circle cx="209.587" cy="236.8" r="11.385"></circle>
      <path d="M281.873 222.27c1.746 0 3.504-.58 4.961-1.771 1.725-1.412 7.299-3.513 15.578-3.513 8.278 0 13.852 2.101 15.578 3.512a7.844 7.844 0 009.929-12.143c-5.402-4.417-14.938-7.055-25.508-7.055-10.57 0-20.106 2.637-25.51 7.056a7.844 7.844 0 004.972 13.914z"></path>
      <circle cx="302.417" cy="236.8" r="11.385"></circle>
      <path d="M511.427 447.918c-16.844-41.554-50.492-74.64-92.317-90.773a162.141 162.141 0 00-19.102-6.033v-25.1c36.107-13.656 63.353-45.492 70.508-84.283 17.888-2.928 31.585-18.485 31.585-37.189 0-10.914-4.685-20.77-12.145-27.666v-25.568c0-36.539-15.567-71.549-42.708-96.054a7.844 7.844 0 00-10.512 11.643c23.854 21.536 37.535 52.302 37.535 84.411v16.844a37.68 37.68 0 00-1.904-.461c-.005-.399-.026-.797-.036-1.195-.328-13.528-3.34-26.899-8.748-39.302a100.189 100.189 0 00-6.685-12.7 7.844 7.844 0 00-6.265-3.704 7.864 7.864 0 00-6.612 3.041c-2.085 2.701-5.218 4.251-8.598 4.251-5.993 0-10.869-4.875-10.869-10.868a7.843 7.843 0 00-15.686 0c0 5.993-4.875 10.868-10.869 10.868-5.992 0-10.868-4.875-10.868-10.868a7.843 7.843 0 00-15.686 0c0 1.662-.41 3.355-1.163 4.834a11.096 11.096 0 01-3.223 3.841c-.053.04-.106.082-.16.12a129.195 129.195 0 00-17.412-22.681c-10.241-10.67-22.248-19.608-35.459-26.267a130.432 130.432 0 00-14.77-6.323c-.674-.241-4.62-2.066-5.124-1.702 19.252-13.901 42.359-21.423 66.442-21.423 18.163 0 35.519 4.155 51.584 12.349a7.842 7.842 0 0010.55-3.423 7.842 7.842 0 00-3.422-10.55c-18.294-9.33-38.048-14.062-58.713-14.062-31.883 0-62.259 11.592-85.978 32.714a129.912 129.912 0 00-18.595-1.342c-6.314 0-12.521.463-18.595 1.342-23.719-21.122-54.095-32.714-85.978-32.714-27.23 0-53.283 8.367-75.345 24.197a7.843 7.843 0 109.144 12.745c19.38-13.906 42.272-21.257 66.201-21.257 24.083 0 47.19 7.522 66.442 21.423-19.821 6.125-37.616 16.899-52.119 31.036a131.88 131.88 0 00-14.032 16.054c-.597.808-6.907 9.666-6.613 9.881l-.163-.122c-2.66-1.998-4.382-5.306-4.382-8.673a7.843 7.843 0 00-15.686 0c0 5.993-4.875 10.868-10.868 10.868s-10.869-4.875-10.869-10.868a7.843 7.843 0 00-15.686 0c0 5.993-4.875 10.868-10.869 10.868-3.379 0-6.514-1.549-8.598-4.25a7.872 7.872 0 00-6.612-3.042 7.843 7.843 0 00-6.265 3.704c-7.537 12.173-12.566 25.957-14.474 40.154a108.75 108.75 0 00-.959 11.847c-.009.398-.03.796-.036 1.195-.639.137-1.275.291-1.904.461v-16.844c0-26.383 9.241-52.092 26.021-72.39a7.844 7.844 0 00-12.09-9.995C32.568 92.02 22.05 121.278 22.05 151.302v25.568c-7.46 6.896-12.145 16.752-12.145 27.666 0 18.704 13.697 34.261 31.585 37.189 7.155 38.792 34.4 70.627 70.507 84.283v25.1a162.067 162.067 0 00-19.101 6.033 162.484 162.484 0 00-38.459 21.225 7.844 7.844 0 009.36 12.588 147.104 147.104 0 0127.283-16.058c-2.111.953 14.36 21.022 16.038 22.55 7.263 6.615 15.99 11.641 25.404 14.472a65.862 65.862 0 0020.072 2.791 163.373 163.373 0 00-26.971 28.307H20.002c5.802-11.533 13.11-22.255 21.815-31.986a7.843 7.843 0 10-11.691-10.458C17.555 414.625 7.612 430.553.575 447.913a7.844 7.844 0 007.268 10.789h107.421a161.473 161.473 0 00-10.116 20.583 7.841 7.841 0 007.268 10.79h287.167a7.84 7.84 0 007.268-10.788 161.285 161.285 0 00-10.118-20.583h107.422a7.84 7.84 0 006.504-3.461 7.83 7.83 0 00.768-7.325zM384.321 330.667v26.698a7.841 7.841 0 006.249 7.679c5.303 1.1 10.561 2.5 15.707 4.181-.072.163-.142.327-.215.489-2.969 6.522-7.321 12.405-12.766 17.073-9.086 7.789-20.723 12.252-32.72 12.252-7.862 0-15.67-1.911-22.673-5.475-10.017-5.1-18.159-13.621-22.814-23.848-.073-.162-.143-.326-.215-.489a146.608 146.608 0 0115.706-4.181 7.843 7.843 0 006.249-7.679v-26.701c.402.087.805.162 1.208.245a112.94 112.94 0 0022.54 2.292c7.687 0 15.386-.79 22.91-2.364.276-.06.556-.111.834-.172zm-83.202 71.209c-8.222 17.217-26.028 28.534-45.118 28.534-19.461 0-37.849-12.018-45.7-29.807l.447-.146a148.732 148.732 0 0115.256-4.041 7.843 7.843 0 006.249-7.679V362.04c.28.061.563.112.843.17a112.409 112.409 0 0022.905 2.363c7.339 0 14.685-.727 21.883-2.156.622-.122 1.245-.243 1.865-.378v26.698a7.841 7.841 0 006.249 7.679 144.846 144.846 0 0115.212 4.027l.49.161c-.071.161-.14.322-.212.482-.121.264-.243.528-.369.79zM144.263 256.451c-8.241-3.182-14.102-11.188-14.102-20.538 0-7.506 3.797-14.154 9.567-18.129a22.567 22.567 0 014.37-2.335l.104-.039v37.365c0 1.144.023 2.283.058 3.419.002.085.001.171.003.257zm36.894-91.312c7.293 0 13.907-2.954 18.711-7.73 4.804 4.775 11.418 7.73 18.712 7.73 7.293 0 13.907-2.954 18.711-7.73 4.204 4.179 9.793 6.962 16.01 7.593.888.09 1.789.136 2.701.136 7.293 0 13.907-2.955 18.711-7.73 4.804 4.775 11.419 7.73 18.712 7.73 7.293 0 13.907-2.955 18.711-7.73 4.804 4.775 11.419 7.73 18.712 7.73a26.41 26.41 0 0012.486-3.109 87.889 87.889 0 018.78 38.353v52.393c0 2.853-.136 5.712-.385 8.553l-.038.427c-1.936 20.73-10.853 40.674-24.933 55.994l-2.101 2.212c-11.506 11.755-25.993 20.581-42.229 25.23l-.148.044a96.566 96.566 0 01-26.278 3.652 96.251 96.251 0 01-26.278-3.652l-.148-.044c-35.914-10.317-63.645-42.187-68.773-79.196l-.021-.148a95.581 95.581 0 01-.892-13.072v-52.393a87.91 87.91 0 018.78-38.353 26.14 26.14 0 004.441 1.873 26.597 26.597 0 008.046 1.237zm120.986 219.174a160.481 160.481 0 00-6.708-1.829v-5.317c1.59-.788 3.188-1.547 4.789-2.27-.233.107 4.658 8.901 5.295 9.881.153.235.297.478.453.711-.136-.044-.275-.082-.412-.125a168.448 168.448 0 00-3.417-1.051zm-.048-27.188l-.014.004-.699.265c-1.987.776-3.97 1.616-5.948 2.484v-2.494a111.625 111.625 0 0025.706-13.804v7.531a162.532 162.532 0 00-19.045 6.014zm65.649-100.978c.033-1.12.055-2.243.055-3.371V215.41c.033.013.067.024.099.038a22.225 22.225 0 014.378 2.339c5.768 3.975 9.563 10.62 9.563 18.126 0 9.349-5.86 17.355-14.101 20.537.005-.101.003-.202.006-.303zm-176.883 87.434a111.646 111.646 0 0025.706 13.804v2.492a164.167 164.167 0 00-6.02-2.51l-.626-.237-.025-.008a162.25 162.25 0 00-19.036-6.009v-7.531h.001zm25.707 38.903a162.822 162.822 0 00-10.134 2.884c-.134.043-.27.079-.403.122a65.34 65.34 0 003.07-5.098 65.612 65.612 0 002.679-5.497 149.22 149.22 0 014.787 2.264l.001 5.325zm255.743-157.405c.003-.101.002-.203.005-.304.033-1.12.055-2.243.055-3.371v-37.365c.034.014.07.025.105.04a22.085 22.085 0 014.371 2.335c5.77 3.975 9.567 10.623 9.567 18.129 0 9.348-5.861 17.354-14.103 20.536zm-74.315-91.312c7.293 0 13.908-2.955 18.712-7.73 4.804 4.775 11.419 7.73 18.712 7.73 4.441 0 8.704-1.087 12.486-3.11a87.915 87.915 0 018.78 38.354v52.393c0 3.789-.31 7.538-.668 11.304-4.555 38.701-32.191 70.438-68.729 81.026-.148.043-.295.09-.444.132-12.62 3.577-25.958 4.512-38.962 2.813l-.134-.02a111.68 111.68 0 007.824-13.074c4.69-9.177 8.189-19.245 10.173-29.46l.043-.222c.051-.267.105-.532.154-.799 17.887-2.928 31.584-18.485 31.584-37.188 0-10.914-4.685-20.77-12.145-27.666v-25.57c0-12.771-1.869-25.111-5.332-36.773l-.041-.137a130.747 130.747 0 00-5.832-15.8c.044-.026.086-.056.129-.084.393-.242 5.131-3.698 4.947-3.882a26.703 26.703 0 002.888 2.496c4.533 3.385 10.197 5.267 15.855 5.267zM281.439 71.855c3.438.788 6.839 1.74 10.188 2.855 17.807 5.924 34.002 16.289 46.928 29.881 11.762 12.367 20.606 27.422 25.808 43.669.032.099.066.199.097.298a114.357 114.357 0 014.742 23.59l.025.287c.31 3.405.466 6.828.466 10.246v16.844a37.643 37.643 0 00-1.903-.461c-.005-.399-.026-.797-.036-1.195-.329-13.578-3.335-27.172-8.871-39.579a104.147 104.147 0 00-6.563-12.423 7.843 7.843 0 00-12.877-.662c-2.084 2.701-5.218 4.25-8.598 4.25-5.993 0-10.869-4.875-10.869-10.868a7.843 7.843 0 00-15.686 0c0 5.993-4.875 10.868-10.868 10.868s-10.869-4.875-10.869-10.868c0-4.331-3.51-7.843-7.843-7.843s-7.843 3.512-7.843 7.843c0 5.993-4.875 10.868-10.868 10.868s-10.868-4.875-10.868-10.868a7.843 7.843 0 00-15.686 0c0 5.921-4.953 10.868-10.868 10.868-5.879 0-10.868-4.993-10.868-10.868a7.843 7.843 0 00-15.686 0c0 5.92-4.953 10.868-10.868 10.868-3.355 0-6.554-1.6-8.598-4.25a7.878 7.878 0 00-6.612-3.042 7.843 7.843 0 00-6.265 3.704c-3.97 6.413-7.292 13.338-9.733 20.478a107.855 107.855 0 00-4.628 18.874c-.634 4.215-.974 8.471-1.075 12.733-.008.371-.028.74-.032 1.113-.639.137-1.275.291-1.904.461V182.68c0-14.213 2.679-28.438 7.903-41.657 11.419-28.901 34.966-52.479 63.929-64.036a113.868 113.868 0 0116.424-5.13c16.661-3.832 34.213-3.825 50.875-.002zM39.69 225.079c-8.241-3.182-14.102-11.188-14.102-20.538 0-8.897 5.672-17.194 13.938-20.464l.105-.04v37.365c0 1.128.022 2.251.055 3.371.002.103.001.204.004.306zm16.295 7.629a96.849 96.849 0 01-.668-11.304v-52.393a87.91 87.91 0 018.78-38.353 26.397 26.397 0 0012.486 3.109c7.293 0 13.908-2.955 18.712-7.73 4.804 4.775 11.419 7.73 18.712 7.73.914 0 1.816-.046 2.706-.137 6.23-.634 11.831-3.431 16.037-7.626-.125.128 4.151 3.375 4.585 3.649.12.076.237.157.36.232.044.027.087.058.131.085a128.673 128.673 0 00-3.128 7.71 130.876 130.876 0 00-2.703 8.089l-.042.139a128.982 128.982 0 00-5.332 36.772v25.568c-7.46 6.896-12.145 16.752-12.145 27.666 0 18.703 13.696 34.26 31.584 37.188.053.287.11.571.164.856l.022.114c2.962 15.214 9.142 29.868 18.007 42.586l-.131.02c-12.994 1.722-26.364.777-38.993-2.82-36.745-10.468-64.572-42.302-69.144-81.15zm65.446 132.335a7.843 7.843 0 006.249-7.679v-26.698c.272.059.545.109.817.165a112.027 112.027 0 0022.931 2.369c7.974 0 15.954-.85 23.748-2.536v26.7a7.841 7.841 0 006.249 7.679c5.148 1.069 10.929 2.105 15.711 4.246-6.601 12.979-16.824 23.115-30.99 27.517a49.753 49.753 0 01-14.718 2.231c-15.032 0-29.813-7.167-39.138-18.946-2.44-3.081-5.46-7.057-6.492-10.865 4.994-1.903 10.407-3.097 15.633-4.183zm3.149 109.351a146.922 146.922 0 0112.162-19.987 148.264 148.264 0 0144.963-40.918 150.722 150.722 0 0113.955-7.198c-.41.185 5.143 9.734 5.681 10.535 12.102 18.009 32.927 29.271 54.659 29.271 10.474 0 21.004-2.624 30.291-7.451 13.332-6.931 24.137-18.546 30.053-32.36a147.094 147.094 0 0111.302 5.678c16.399 9.182 30.889 21.438 42.666 35.971a148.927 148.927 0 014.896 6.402 147.01 147.01 0 0112.214 20.056H124.58v.001zm261.802-31.372a163.264 163.264 0 00-26.974-28.307c.388.006.776.01 1.166.01 20.095 0 39.707-9.711 51.978-25.604a65.629 65.629 0 008.372-14.221c30.727 13.86 55.934 38.058 71.071 68.122H386.382z"></path>
    </svg>